<?xml version="1.0" standalone="no"?><!DOCTYPE svg PUBLIC "-//W3C//DTD SVG 1.1//EN" "http://www.w3.org/Graphics/SVG/1.1/DTD/svg11.dtd"><svg t="1600763794304" class="icon" viewBox="0 0 1024 1024" version="1.1" xmlns="http://www.w3.org/2000/svg" p-id="12459" xmlns:xlink="http://www.w3.org/1999/xlink" width="200" height="200"><defs><style type="text/css"></style></defs><path d="M512 512m-512 0a512 512 0 1 0 1024 0 512 512 0 1 0-1024 0Z" fill="#A68EC0" p-id="12460"></path><path d="M584.961 729.172a41.643 41.643 0 0 0 24.946 38.155c-7.019 14.662-4.261 32.1 6.905 43.911l3.363 3.36c11.517 11.508 28.943 14.697 43.805 8.033 6.642 15.249 21.749 25.078 38.394 24.931 16.622 0.087 31.718-9.714 38.384-24.931 14.963 6.849 32.601 3.629 44.188-8.033l3.36-3.36a39.276 39.276 0 0 0 8.035-43.817 41.656 41.656 0 0 0 24.932-38.15c0-16.549-9.789-31.523-24.932-38.149 6.664-14.856 3.472-32.298-8.035-43.814l-3.36-3.461c-11.528-11.504-28.96-14.71-43.814-8.033a41.472 41.472 0 0 0-38.005-24.93c-16.514 0.011-31.441 9.799-38.021 24.93-14.857-6.677-32.288-3.472-43.815 8.033l-3.353 3.363a39.232 39.232 0 0 0-8.03 43.813c-15.158 6.623-24.947 21.6-24.947 38.149z m78.558-29.662l0.182 0.476a30.065 30.065 0 0 1 9.338-9.344 55.351 55.351 0 0 1 29.714-9.335c35.489-0.098 62.67 39.88 38.66 77.236a29.703 29.703 0 0 1-9.341 9.342 55.407 55.407 0 0 1-29.615 9.345c-35.853-0.001-62.672-39.783-38.938-77.72z" fill="#FFFFFF" p-id="12461"></path><path d="M207.424 506.922c15.074 83.513 66.377 156.058 140.104 198.104 11.238 6.413 16.462 19.813 12.521 32.13-17.662 23.539-26.804 65.382-30.736 87.989a13.79 13.79 0 0 0 3.061 11.229 13.781 13.781 0 0 0 10.584 4.838l258.072-0.653h1.776a2.244 2.244 0 0 0 1.997-1.426 2.204 2.204 0 0 0-0.509-2.394 30.454 30.454 0 0 1-2.434-2.058l-3.725-3.558a66.259 66.259 0 0 1-19.523-47.178v-4.019a69.161 69.161 0 0 1-21.617-50.249 69.218 69.218 0 0 1 21.617-50.25v-4.016a66.31 66.31 0 0 1 19.523-47.636l3.362-3.364a66.342 66.342 0 0 1 47.165-19.521h4.014a68.766 68.766 0 0 1 50.073-21.568 66.623 66.623 0 0 1 25.584 5.138c6.616 2.942 14.382 0.243 17.745-6.169a284.359 284.359 0 0 0 29.516-136.558c-3.593-96.011-55.077-183.833-137.092-233.888-82.029-50.045-183.677-55.657-270.713-14.941 30.35 61.778 29.588 134.298-2.029 195.434-31.633 61.138-90.375 103.658-158.336 114.584z m199.318-8.677c3.857-3.93 9.122-6.131 14.62-6.178a20.641 20.641 0 0 1 17.231 9.34 18.701 18.701 0 0 1 20.25-4.854 18.678 18.678 0 0 1 12.167 16.913c0.064 21.917 16.83 40.188 38.662 42.12a47.45 47.45 0 0 0 27.183-42.786 20.65 20.65 0 0 1 10.995-18.313 20.662 20.662 0 0 1 21.325 1.22 18.9 18.9 0 0 1 5.044-0.749c10.319 0 18.679 8.374 18.679 18.689-0.111 36.338-24.884 67.971-60.147 76.776-27.47 15.387-61.039 15.063-88.197-0.868a88.648 88.648 0 0 1-43.789-76.57 20.734 20.734 0 0 1 5.977-14.74z" fill="#FFFFFF" p-id="12462"></path><path d="M532.752 590.423c35.253-8.853 59.988-40.521 60.063-76.873 0-10.316-8.372-18.688-18.689-18.688a19.173 19.173 0 0 0-5.041 0.752 20.647 20.647 0 0 1 9.154 17.103c0.058 32.221-17.348 61.982-45.487 77.706zM489.509 560.157a46.653 46.653 0 0 0 20.261-4.574c-21.847-1.934-38.612-20.201-38.673-42.119a18.657 18.657 0 0 0-12.157-16.913 18.697 18.697 0 0 0-20.252 4.854 20.525 20.525 0 0 1 3.46 11.393c0.049 26.142 21.218 47.311 47.361 47.359z" fill="#FFFFFF" p-id="12463"></path><path d="M365.76 392.34c31.617-61.134 32.38-133.655 2.029-195.435-100.656 47.177-164.95 148.319-164.95 259.485a287.937 287.937 0 0 0 4.584 50.53c67.962-10.924 126.704-53.444 158.337-114.58z" fill="#FFFFFF" opacity=".4" p-id="12464"></path></svg>