<?xml version="1.0" standalone="no"?><!DOCTYPE svg PUBLIC "-//W3C//DTD SVG 1.1//EN" "http://www.w3.org/Graphics/SVG/1.1/DTD/svg11.dtd"><svg t="1600081489118" class="icon" viewBox="0 0 1024 1024" version="1.1" xmlns="http://www.w3.org/2000/svg" p-id="3766" xmlns:xlink="http://www.w3.org/1999/xlink" width="200" height="200"><defs><style type="text/css"></style></defs><path d="M512 75.5C271.25 75.5 75.5 271.25 75.5 512s195.3 436.5 436.5 436.5 436.5-195.3 436.5-436.5-195.75-436.5-436.5-436.5zM289.25 646.55l22.05-88.2 294.3-292.5c28.8-25.65 72-23.85 96.75 1.8 26.55 26.1 27.45 68.4 1.8 95.85l-84.6 82.8-209.25 210.6-87.75 21.6c-3.15 1.35-6.3 1.35-7.65 1.35-8.1 0-16.2-4.05-21.15-10.35-4.95-6.75-6.75-14.85-4.5-22.95z m419.85 130.05H318.95c-14.85 0-27-12.15-27-27s12.15-27 27-27h390.15c14.85 0 27 12.15 27 27-0.45 14.85-12.6 27-27 27z" fill="#FFAB00" p-id="3767"></path></svg>