<?xml version="1.0" standalone="no"?><!DOCTYPE svg PUBLIC "-//W3C//DTD SVG 1.1//EN" "http://www.w3.org/Graphics/SVG/1.1/DTD/svg11.dtd"><svg t="1600082552079" class="icon" viewBox="0 0 1024 1024" version="1.1" xmlns="http://www.w3.org/2000/svg" p-id="19773" xmlns:xlink="http://www.w3.org/1999/xlink" width="200" height="200"><defs><style type="text/css"></style></defs><path d="M943.592727 845.056l-217.064727-222.766545c-2.513455-2.583273-5.329455-4.538182-7.982545-6.679273a372.829091 372.829091 0 0 0 58.065454-200.587637C776.610909 211.502545 615.889455 46.545455 417.466182 46.545455 219.159273 46.545455 58.321455 211.502545 58.321455 414.999273c0 203.543273 160.861091 368.453818 359.168 368.453818 72.168727 0 139.264-22.016 195.630545-59.648 2.048 2.792727 3.956364 5.562182 6.423273 8.168727l217.111272 222.766546c14.801455 15.150545 34.117818 22.714182 53.457455 22.714181s38.656-7.563636 53.457455-22.714181a79.034182 79.034182 0 0 0 0.023272-109.684364z m-526.126545-177.966545c-135.470545 0-245.736727-113.082182-245.736727-252.090182 0-138.961455 110.266182-252.113455 245.736727-252.113455 135.447273 0 245.736727 113.152 245.736727 252.113455 0 139.008-110.266182 252.090182-245.736727 252.090182z" p-id="19774" fill="#ffffff"></path></svg>