<?xml version="1.0" standalone="no"?><!DOCTYPE svg PUBLIC "-//W3C//DTD SVG 1.1//EN" "http://www.w3.org/Graphics/SVG/1.1/DTD/svg11.dtd"><svg t="1600082249963" class="icon" viewBox="0 0 1024 1024" version="1.1" xmlns="http://www.w3.org/2000/svg" p-id="11585" xmlns:xlink="http://www.w3.org/1999/xlink" width="200" height="200"><defs><style type="text/css"></style></defs><path d="M512 1024C229.233778 1024 0 794.766222 0 512S229.233778 0 512 0s512 229.233778 512 512-229.233778 512-512 512z m184.888889-725.333333v21.333333a49.777778 49.777778 0 0 1-99.555556 0V298.666667H440.888889v21.333333a49.777778 49.777778 0 0 1-99.555556 0V298.666667h-56.888889a28.444444 28.444444 0 0 0-28.444444 28.444444v426.666667a28.444444 28.444444 0 0 0 28.444444 28.444444h469.333334a28.444444 28.444444 0 0 0 28.444444-28.444444V327.111111a28.444444 28.444444 0 0 0-28.444444-28.444444h-56.888889z m-370.673778 128h385.777778c15.217778 0 27.562667 12.728889 27.562667 28.444444v256c0 15.715556-12.330667 28.444444-27.562667 28.444445H326.243556C310.997333 739.555556 298.666667 726.826667 298.666667 711.111111V455.111111c0-15.715556 12.330667-28.444444 27.562666-28.444444zM391.111111 241.777778a21.333333 21.333333 0 0 0-21.333333 21.333333v56.888889a21.333333 21.333333 0 0 0 42.666666 0v-56.888889a21.333333 21.333333 0 0 0-21.333333-21.333333z m256 0a21.333333 21.333333 0 0 0-21.333333 21.333333v56.888889a21.333333 21.333333 0 0 0 42.666666 0v-56.888889a21.333333 21.333333 0 0 0-21.333333-21.333333zM512 514.844444v78.620445l39.210667 42.737778L568.888889 620.174222l-33.052445-35.100444V514.844444H512z m125.212444 43.349334c-6.570667-28.913778-24.817778-54.129778-50.346666-71.196445-27.008-16.312889-57.656889-21.504-86.115556-14.833777-17.521778 3.697778-34.304 12.615111-48.170666 24.476444a138.368 138.368 0 0 0-17.507556 18.545778v-11.875556H412.444444v59.335111h59.107556v-22.243555H446.008889c12.416-22.997333 33.564444-40.049778 59.121778-45.980445 24.078222-5.944889 48.156444-0.753778 68.593777 11.861334 21.162667 12.600889 35.754667 33.379556 40.135112 56.362666 5.12 22.997333 2.190222 47.473778-11.662223 68.977778-12.416 20.764444-32.853333 34.844444-56.206222 40.789333-24.078222 5.930667-48.170667 0.739556-68.593778-11.861333-21.162667-12.615111-35.768889-33.379556-40.135111-56.362667l-21.902222 3.697778c6.570667 28.928 24.817778 54.144 50.346667 71.196445A111.104 111.104 0 0 0 526.307556 696.888889c8.746667 0 17.507556-0.739556 25.543111-2.972445 29.909333-6.670222 54.727111-25.216 70.784-50.432 16.056889-25.216 21.162667-55.608889 14.592-85.290666z" fill="#FD3B10" p-id="11586"></path></svg>