<?xml version="1.0" standalone="no"?><!DOCTYPE svg PUBLIC "-//W3C//DTD SVG 1.1//EN" "http://www.w3.org/Graphics/SVG/1.1/DTD/svg11.dtd"><svg t="1600081569098" class="icon" viewBox="0 0 1025 1024" version="1.1" xmlns="http://www.w3.org/2000/svg" p-id="10840" xmlns:xlink="http://www.w3.org/1999/xlink" width="200.1953125" height="200"><defs><style type="text/css"></style></defs><path d="M0 512.49671c0 282.438537 229.227312 510.311185 511.665849 510.311185 282.438537 1.372727 511.665849-227.872647 511.66585-510.311185 0-281.083873-229.227312-510.293123-511.66585-510.293122C229.227312 2.185526 0 231.412838 0 512.49671z m0 0" fill="#DDA542" p-id="10841"></path><path d="M701.318893 760.815762c-61.3934-25.919249-83.230593-68.220909-90.058102-103.695059 43.656324-35.47415 79.130475-91.412767 98.240276-152.824229 20.464467-24.564585 31.374032-51.838499 31.374032-73.675692 0-15.009684-5.454783-25.919249-15.009684-34.119486-2.727391-129.614309-95.512885-233.32743-208.762845-234.682094h-4.100118c-113.24996 0-204.662727 102.322333-210.11751 230.581976-13.655019 8.182174-21.837193 20.464467-21.837194 39.574269 0 25.919249 16.364348 57.311344 42.30166 87.330711 19.109802 53.211225 50.483834 102.340395 87.330711 135.087153-5.454783 36.846877-27.291976 80.503201-91.412767 107.795178-34.101423 15.009684-98.240277 28.664703-124.159526 42.30166 69.575574 76.403083 201.935336 124.159526 313.81257 124.159526h1.372727c111.877234 0 245.609723-47.756443 315.185296-124.159526-25.919249-15.009684-88.685376-28.664703-124.159526-43.674387z m0 0" fill="#B27F1D" p-id="10842"></path><path d="M701.318893 729.44173c-61.3934-25.919249-83.230593-68.220909-90.058102-103.695059 43.656324-35.47415 79.130475-91.412767 98.240276-152.824229 20.464467-24.564585 31.374032-51.856561 31.374032-73.675692 0-15.009684-5.454783-25.919249-15.009684-34.101423-2.727391-129.614309-95.512885-233.32743-208.762845-234.682095h-4.100118c-113.24996 0-204.662727 102.340395-210.11751 230.600039-13.655019 8.182174-21.837193 20.464467-21.837194 39.574268 0 25.919249 16.364348 57.311344 42.30166 87.330711 19.109802 53.211225 50.483834 102.322333 87.330711 135.087154-5.454783 36.846877-27.291976 80.503201-91.412767 107.795177-34.101423 15.009684-98.240277 28.646641-124.159526 42.30166 69.575574 76.403083 201.935336 124.159526 313.81257 124.159526h1.372727c111.877234 0 245.609723-47.756443 315.185296-124.159526-25.919249-15.06387-88.685376-28.700827-124.159526-43.710511z m0 0" fill="#FFFFFF" p-id="10843"></path></svg>