<?xml version="1.0" standalone="no"?><!DOCTYPE svg PUBLIC "-//W3C//DTD SVG 1.1//EN" "http://www.w3.org/Graphics/SVG/1.1/DTD/svg11.dtd"><svg t="1600072487904" class="icon" viewBox="0 0 1024 1024" version="1.1" xmlns="http://www.w3.org/2000/svg" p-id="2707" xmlns:xlink="http://www.w3.org/1999/xlink" width="200" height="200"><defs><style type="text/css"></style></defs><path d="M512 0c282.7776 0 512 229.2224 512 512s-229.2224 512-512 512S0 794.7776 0 512 229.2224 0 512 0zM310.5792 766.3104L463.7184 701.44a21.504 21.504 0 0 0 6.656-4.4544L728.576 438.784a47.0016 47.0016 0 0 0 0.1536-66.3552l-51.5584-51.5584a46.9504 46.9504 0 0 0-66.3552 0.1024l-258.2528 258.304a20.8384 20.8384 0 0 0-4.4544 6.656l-64.8704 153.088a20.5824 20.5824 0 0 0 4.4544 22.8352 20.5312 20.5312 0 0 0 22.8352 4.4544z m333.3632-412.16l0.1536-0.1536 51.5072 51.5072-0.1024 0.1536-40.3456 40.2944-51.456-51.456 40.2432-40.3456z m-254.6688 254.6688l181.248-181.3504 51.5072 51.5584-181.248 181.2992-89.344 37.888 37.888-89.3952z" fill="#408FFA" p-id="2708"></path></svg>